<?xml version="1.0" encoding="UTF-8" standalone="no"?>
<!-- Generator: Adobe Illustrator 17.1.0, SVG Export Plug-In . SVG Version: 6.00 Build 0)  -->

<svg
   xmlns:dc="http://purl.org/dc/elements/1.1/"
   xmlns:cc="http://creativecommons.org/ns#"
   xmlns:rdf="http://www.w3.org/1999/02/22-rdf-syntax-ns#"
   xmlns:svg="http://www.w3.org/2000/svg"
   xmlns="http://www.w3.org/2000/svg"
   xmlns:sodipodi="http://sodipodi.sourceforge.net/DTD/sodipodi-0.dtd"
   xmlns:inkscape="http://www.inkscape.org/namespaces/inkscape"
   version="1.1"
   id="Layer_1"
   x="0px"
   y="0px"
   viewBox="0 0 323.141 322.95"
   enable-background="new 0 0 323.141 322.95"
   xml:space="preserve"
   sodipodi:docname="elm-scotland.svg"
   inkscape:version="0.92.1 r15371"><metadata
     id="metadata4969"><rdf:RDF><cc:Work
         rdf:about=""><dc:format>image/svg+xml</dc:format><dc:type
           rdf:resource="http://purl.org/dc/dcmitype/StillImage" /></cc:Work></rdf:RDF></metadata><defs
     id="defs4967"><pattern
       patternUnits="userSpaceOnUse"
       height="4"
       width="4"
       id="G_v"><path
         id="path5079"
         style="stroke:#050;stroke-width:1.43px"
         d="M 0 4 L 4 0 z M -2 2 L 2 -2 z M 2 6 L 6 2 z" /></pattern><pattern
       patternUnits="userSpaceOnUse"
       height="4"
       width="4"
       id="G_h"><path
         id="path5082"
         style="stroke:#050;stroke-width:1.43px"
         d="M -1 3 L 3 -1 z M 1 5 L 5 1 z" /></pattern><pattern
       patternUnits="userSpaceOnUse"
       height="4"
       width="4"
       id="R_v"><path
         id="path5085"
         style="stroke:#C80000;stroke-width:1.43px"
         d="M 0 4 L 4 0 z M -2 2 L 2 -2 z M 2 6 L 6 2 z" /></pattern><pattern
       patternUnits="userSpaceOnUse"
       height="4"
       width="4"
       id="R_h"><path
         id="path5088"
         style="stroke:#C80000;stroke-width:1.43px"
         d="M -1 3 L 3 -1 z M 1 5 L 5 1 z" /></pattern><pattern
       patternUnits="userSpaceOnUse"
       height="4"
       width="4"
       id="B_v"><path
         id="path5091"
         style="stroke:#005;stroke-width:1.43px"
         d="M 0 4 L 4 0 z M -2 2 L 2 -2 z M 2 6 L 6 2 z" /></pattern><pattern
       patternUnits="userSpaceOnUse"
       height="4"
       width="4"
       id="B_h"><path
         id="path5094"
         style="stroke:#005;stroke-width:1.43px"
         d="M -1 3 L 3 -1 z M 1 5 L 5 1 z" /></pattern><pattern
       patternUnits="userSpaceOnUse"
       height="4"
       width="4"
       id="Y_v"><path
         id="path5097"
         style="stroke:#ff0;stroke-width:1.43px"
         d="M 0 4 L 4 0 z M -2 2 L 2 -2 z M 2 6 L 6 2 z" /></pattern><pattern
       patternUnits="userSpaceOnUse"
       height="4"
       width="4"
       id="Y_h"><path
         id="path5100"
         style="stroke:#ff0;stroke-width:1.43px"
         d="M -1 3 L 3 -1 z M 1 5 L 5 1 z" /></pattern><pattern
       patternUnits="userSpaceOnUse"
       height="4"
       width="4"
       id="W_v"><path
         id="path5103"
         style="stroke:#fff;stroke-width:1.43px"
         d="M 0 4 L 4 0 z M -2 2 L 2 -2 z M 2 6 L 6 2 z" /></pattern><pattern
       patternUnits="userSpaceOnUse"
       height="4"
       width="4"
       id="W_h"><path
         id="path5106"
         style="stroke:#fff;stroke-width:1.43px"
         d="M -1 3 L 3 -1 z M 1 5 L 5 1 z" /></pattern><pattern
       patternUnits="userSpaceOnUse"
       height="524"
       width="524"
       id="fabric"><path
         id="path5109"
         d="M 0 0 v 524 h 2 V 0 z M 98 0 v 524 h 20 V 0 z M 144 0 v 524 h 20 V 0 z M 260 0 v 524 h 4 V 0 z M 360 0 v 524 h 20 V 0 z M 406 0 v 524 h 20 V 0 z M 522 0 v 524 h 2 V 0 z"
         fill="url(#G_v)" /><path
         id="path5111"
         d="M 0 0 h 524 v 2 H 0 z M 0 98 h 524 v 20 H 0 z M 0 144 h 524 v 20 H 0 z M 0 260 h 524 v 4 H 0 z M 0 360 h 524 v 20 H 0 z M 0 406 h 524 v 20 H 0 z M 0 522 h 524 v 2 H 0 z"
         fill="url(#G_h)" /><path
         id="path5113"
         d="M 2 0 v 524 h 60 V 0 z M 70 0 v 524 h 8 V 0 z M 118 0 v 524 h 8 V 0 z M 128 0 v 524 h 2 V 0 z M 132 0 v 524 h 2 V 0 z M 136 0 v 524 h 8 V 0 z M 184 0 v 524 h 8 V 0 z M 200 0 v 524 h 60 V 0 z M 264 0 v 524 h 60 V 0 z M 332 0 v 524 h 8 V 0 z M 380 0 v 524 h 8 V 0 z M 390 0 v 524 h 2 V 0 z M 394 0 v 524 h 2 V 0 z M 398 0 v 524 h 8 V 0 z M 446 0 v 524 h 8 V 0 z M 462 0 v 524 h 60 V 0 z"
         fill="url(#R_v)" /><path
         id="path5115"
         d="M 0 2 h 524 v 60 H 0 z M 0 70 h 524 v 8 H 0 z M 0 118 h 524 v 8 H 0 z M 0 128 h 524 v 2 H 0 z M 0 132 h 524 v 2 H 0 z M 0 136 h 524 v 8 H 0 z M 0 184 h 524 v 8 H 0 z M 0 200 h 524 v 60 H 0 z M 0 264 h 524 v 60 H 0 z M 0 332 h 524 v 8 H 0 z M 0 380 h 524 v 8 H 0 z M 0 390 h 524 v 2 H 0 z M 0 394 h 524 v 2 H 0 z M 0 398 h 524 v 8 H 0 z M 0 446 h 524 v 8 H 0 z M 0 462 h 524 v 60 H 0 z"
         fill="url(#R_h)" /><path
         id="path5117"
         d="M 62 0 v 524 h 8 V 0 z M 192 0 v 524 h 8 V 0 z M 324 0 v 524 h 8 V 0 z M 454 0 v 524 h 8 V 0 z"
         fill="url(#B_v)" /><path
         id="path5119"
         d="M 0 62 h 524 v 8 H 0 z M 0 192 h 524 v 8 H 0 z M 0 324 h 524 v 8 H 0 z M 0 454 h 524 v 8 H 0 z"
         fill="url(#B_h)" /><path
         id="path5121"
         d="M 90 0 v 524 h 2 V 0 z M 170 0 v 524 h 2 V 0 z M 352 0 v 524 h 2 V 0 z M 432 0 v 524 h 2 V 0 z"
         fill="url(#Y_v)" /><path
         id="path5123"
         d="M 0 90 h 524 v 2 H 0 z M 0 170 h 524 v 2 H 0 z M 0 352 h 524 v 2 H 0 z M 0 432 h 524 v 2 H 0 z"
         fill="url(#Y_h)" /><path
         id="path5125"
         d="M 94 0 v 524 h 2 V 0 z M 130 0 v 524 h 2 V 0 z M 166 0 v 524 h 2 V 0 z M 356 0 v 524 h 2 V 0 z M 392 0 v 524 h 2 V 0 z M 428 0 v 524 h 2 V 0 z"
         fill="url(#W_v)" /><path
         id="path5127"
         d="M 0 94 h 524 v 2 H 0 z M 0 130 h 524 v 2 H 0 z M 0 166 h 524 v 2 H 0 z M 0 356 h 524 v 2 H 0 z M 0 392 h 524 v 2 H 0 z M 0 428 h 524 v 2 H 0 z"
         fill="url(#W_h)" /></pattern></defs><sodipodi:namedview
     pagecolor="#ffffff"
     bordercolor="#666666"
     borderopacity="1"
     objecttolerance="10"
     gridtolerance="10"
     guidetolerance="10"
     inkscape:pageopacity="0"
     inkscape:pageshadow="2"
     inkscape:window-width="3840"
     inkscape:window-height="2073"
     id="namedview4965"
     showgrid="false"
     inkscape:snap-global="false"
     inkscape:zoom="1.2885348"
     inkscape:cx="-299.3779"
     inkscape:cy="58.009997"
     inkscape:window-x="0"
     inkscape:window-y="0"
     inkscape:window-maximized="1"
     inkscape:current-layer="Layer_1" /><g
     id="g4614"
     transform="matrix(0.66852505,0,0,0.66852505,369.96573,11.415706)"><polygon
       transform="translate(-369.50084,187.38687)"
       points="161.649,152.782 231.514,82.916 91.783,82.916 "
       id="polygon4948"
       style="fill:#f0ad00" /><polygon
       transform="rotate(135,-97.645979,-44.304778)"
       points="8.867,0 79.241,70.375 232.213,70.375 161.838,0 "
       id="polygon4950"
       style="fill:#7fd13b" /><rect
       x="36.275707"
       y="395.37845"
       transform="rotate(45)"
       width="107.67497"
       height="108.16596"
       id="rect4952"
       style="fill:#7fd13b;stroke-width:0.9999904" /><polygon
       transform="rotate(-135,-31.390679,335.43522)"
       points="323.298,143.724 323.298,0 179.573,0 "
       id="polygon4954"
       style="fill:#60b5cc" /><polygon
       transform="translate(-411.01921,137.88201)"
       points="0,8.868 0,314.432 152.781,161.649 "
       id="polygon4956"
       style="fill:#5a6378" /><polygon
       transform="rotate(90,-109.51062,20.856832)"
       points="255.522,246.655 323.298,314.432 323.298,178.879 "
       id="polygon4958"
       style="fill:#f0ad00" /><polygon
       transform="matrix(1,0,0,-1,-442.58145,438.11504)"
       points="8.869,323.298 314.43,323.298 161.649,170.517 "
       id="polygon4960"
       style="fill:#60b5cc" /></g></svg>